<?xml version="1.0" encoding="UTF-8" standalone="no"?>
<!-- Created with Inkscape (http://www.inkscape.org/) -->

<svg
   width="210mm"
   height="297mm"
   viewBox="0 0 210 297"
   version="1.1"
   id="svg1"
   xml:space="preserve"
   inkscape:version="1.3 (0e150ed6c4, 2023-07-21)"
   sodipodi:docname="favicon.svg"
   xmlns:inkscape="http://www.inkscape.org/namespaces/inkscape"
   xmlns:sodipodi="http://sodipodi.sourceforge.net/DTD/sodipodi-0.dtd"
   xmlns="http://www.w3.org/2000/svg"
   xmlns:svg="http://www.w3.org/2000/svg"><sodipodi:namedview
     id="namedview1"
     pagecolor="#505050"
     bordercolor="#eeeeee"
     borderopacity="1"
     inkscape:showpageshadow="0"
     inkscape:pageopacity="0"
     inkscape:pagecheckerboard="0"
     inkscape:deskcolor="#505050"
     inkscape:document-units="mm"
     inkscape:zoom="8.3597643"
     inkscape:cx="414.54518"
     inkscape:cy="573.99944"
     inkscape:window-width="1920"
     inkscape:window-height="1129"
     inkscape:window-x="-8"
     inkscape:window-y="227"
     inkscape:window-maximized="1"
     inkscape:current-layer="layer1" /><defs
     id="defs1" /><g
     inkscape:label="Ebene 1"
     inkscape:groupmode="layer"
     id="layer1"><path
       style="fill:#800000"
       d="m 111.08043,155.18398 c -0.54951,-0.046 -1.28805,-0.23145 -2.50352,-0.6287 -1.14005,-0.37261 -1.78605,-0.51619 -2.6615,-0.59158 l -0.41906,-0.0361 -0.43319,0.035 c -0.36716,0.0297 -0.76607,0.095 -1.12648,0.1845 l -0.0827,0.0205 0.0847,-0.0611 c 0.21546,-0.15543 0.38225,-0.308 0.53095,-0.48567 l 0.16157,-0.19306 v -0.0753 c 0,-0.0414 -0.0308,-0.11455 -0.0686,-0.16247 l -0.0686,-0.0872 h -0.1176 -0.11761 l -0.30167,0.12914 c -0.16592,0.071 -0.39615,0.18266 -0.51162,0.24808 l -0.20993,0.11894 0.10301,-0.12405 c 0.28442,-0.3425 0.5906,-0.77343 0.91061,-1.28161 0.71745,-1.13933 1.26981,-1.72686 2.20091,-2.34106 0.36592,-0.24138 1.22662,-0.68511 1.32889,-0.68511 h 0.0602 v 0.0774 0.0774 l -0.091,0.041 c -0.05,0.0225 -0.2347,0.13646 -0.41039,0.25313 l -0.31943,0.21213 -0.3536,0.33761 c -0.4983,0.47576 -0.94033,1.03931 -1.13635,1.44878 -0.0392,0.0819 -0.0525,0.12102 -0.0296,0.087 0.60882,-0.9024 1.49046,-1.72389 2.27887,-2.12341 l 0.1591,-0.0806 0.0659,0.12927 0.066,0.12927 -0.12306,0.0939 c -0.39388,0.30037 -0.87507,0.83374 -1.24885,1.38428 l -0.22454,0.33073 -0.22343,0.46302 c -0.30705,0.63631 -0.31405,0.70642 -0.0208,0.20803 0.50658,-0.86084 1.12723,-1.62114 1.7362,-2.12682 l 0.20783,-0.17258 0.21718,0.22497 c 0.11946,0.12374 0.34591,0.3169 0.50324,0.42926 l 0.28605,0.2043 0.56224,0.276 c 0.64989,0.31902 0.94729,0.42501 1.40206,0.49966 l 0.32659,0.0536 0.36365,-0.0525 0.36366,-0.0525 0.32645,-0.12133 c 0.42906,-0.15948 1.11804,-0.50467 1.45912,-0.73105 l 0.27278,-0.18105 0.265,-0.26679 0.265,-0.26679 0.1401,0.0952 c 0.49117,0.3338 1.34839,1.38504 1.86065,2.2818 0.20964,0.36699 0.20992,0.31519 8.5e-4,-0.1563 -0.18667,-0.42096 -0.4606,-0.88168 -0.76251,-1.28247 l -0.24622,-0.32687 -0.4317,-0.41384 -0.43169,-0.41383 0.0563,-0.11797 0.0563,-0.11797 0.21766,0.11525 c 0.70445,0.37303 1.51646,1.11052 2.0601,1.87104 0.22522,0.31507 0.24395,0.31208 0.0564,-0.009 -0.45313,-0.77586 -1.39068,-1.71645 -2.0559,-2.06256 -0.19253,-0.10017 -0.21304,-0.12745 -0.15946,-0.21209 l 0.0298,-0.0471 0.30044,0.12599 c 1.38653,0.58143 2.28255,1.40493 3.3344,3.06452 0.21944,0.34623 0.48745,0.71783 0.84112,1.16622 l 0.0551,0.0699 -0.41894,-0.20581 c -0.23042,-0.11319 -0.48929,-0.22409 -0.57527,-0.24643 l -0.15633,-0.0406 -0.0911,0.032 -0.0911,0.032 -0.0301,0.0857 -0.0301,0.0857 0.0226,0.0902 0.0226,0.0902 0.15022,0.16061 c 0.0826,0.0883 0.23123,0.22309 0.33023,0.29947 0.22766,0.17564 0.22125,0.17931 -0.17316,0.0991 -0.17959,-0.0365 -0.52837,-0.0824 -0.77508,-0.10206 l -0.44856,-0.0357 -0.42787,0.0346 c -0.72136,0.0584 -1.35189,0.20436 -2.62723,0.60824 -1.57308,0.49818 -2.39685,0.67967 -2.92695,0.64485 -0.0364,-0.002 -0.20753,-0.0162 -0.38034,-0.0306 z m -6.79577,-3.87573 c 0.1,-0.23214 0.23438,-0.60421 0.29874,-0.82682 0.0644,-0.22261 0.12774,-0.44194 0.14085,-0.48742 l 0.0238,-0.0827 0.2699,-0.18415 c 0.72319,-0.49343 1.9581,-1.03099 2.67904,-1.1662 l 0.10579,-0.0198 -0.0176,0.17247 c -0.0243,0.23818 -0.0216,0.23345 -0.16498,0.28447 -1.05726,0.37624 -2.41546,1.41039 -3.39369,2.58401 l -0.12358,0.14826 z m 14.29517,0.0984 c -0.82193,-0.99897 -2.03207,-1.91641 -3.10742,-2.35584 l -0.2744,-0.11214 -0.0191,-0.19167 c -0.0105,-0.10542 -0.0171,-0.19498 -0.0147,-0.19902 0.008,-0.014 0.72969,0.18549 0.9674,0.26761 0.55886,0.19305 1.29212,0.55624 1.80508,0.89405 l 0.28084,0.18494 0.0405,0.17373 c 0.0919,0.39479 0.29733,0.98241 0.50873,1.45531 0.0468,0.1046 0.0807,0.19017 0.0754,0.19017 -0.005,0 -0.12331,-0.13821 -0.26231,-0.30714 z m -7.43992,-1.68885 c 0.33665,-0.14802 0.33812,-0.14803 0.66844,-0.003 0.70026,0.32266 1.82189,-0.44983 1.68293,-0.27131 -0.35562,0.45687 -1.06943,0.82155 -1.81012,0.51432 l -0.20955,-0.0947 -0.12118,0.0614 c -0.70213,0.34712 -1.49089,-0.25356 -1.91991,-0.80992 0.56561,0.38032 1.0629,0.87275 1.70939,0.60321 z m -6.36585,-0.006 c 0.0484,-0.1616 0.13155,-0.70685 0.25441,-1.6689 0.0732,-0.57299 0.16368,-1.23228 0.20113,-1.4651 l 0.0681,-0.4233 -0.14715,-0.28777 c -0.15676,-0.30654 -0.29198,-0.69207 -0.3556,-1.01389 l -0.0389,-0.19697 0.0208,-0.17728 0.0208,-0.17728 0.08,-0.1579 0.08,-0.1579 0.12446,-0.10928 c 0.0685,-0.0601 0.1922,-0.14056 0.27498,-0.17878 l 0.15051,-0.0695 0.38362,-2.6e-4 0.38363,-2.6e-4 0.1995,-0.24793 c 0.98792,-1.22779 2.48142,-2.03298 4.17608,-2.25145 l 0.3142,-0.0405 0.51263,3.4e-4 0.51263,3.4e-4 0.33073,0.0402 c 1.704,0.20716 3.21349,1.03966 4.21613,2.32523 l 0.14802,0.18978 0.2686,-0.0206 0.2686,-0.0206 0.17862,0.042 c 0.22106,0.052 0.32618,0.10422 0.47795,0.23748 l 0.11833,0.10389 0.0872,0.16834 0.0872,0.16835 0.002,0.28111 0.002,0.28112 -0.0769,0.24805 c -0.0423,0.13643 -0.16019,0.42327 -0.26203,0.63742 l -0.18515,0.38938 0.10496,0.68549 c 0.0577,0.37703 0.15002,1.03524 0.20507,1.46271 0.093,0.72203 0.17612,1.25229 0.21981,1.40216 l 0.0183,0.0627 -0.19393,-0.14906 c -0.79836,-0.61367 -1.78207,-1.0645 -2.8275,-1.29581 l -0.087,-0.0192 -0.0755,-0.18596 c -0.40843,-1.00632 -1.77516,-2.27315 -2.7312,-2.53158 l -0.26055,-0.0704 -0.49609,-0.003 -0.4961,-0.003 -0.29765,0.0745 -0.29766,0.0745 -0.26458,0.13119 c -0.34168,0.16942 -0.77534,0.49833 -1.15698,0.87748 l -0.30353,0.30157 -0.26823,0.35997 c -0.14753,0.19799 -0.33839,0.49432 -0.42414,0.65853 -0.0857,0.1642 -0.15924,0.30294 -0.16331,0.3083 -0.004,0.005 -0.12456,0.0378 -0.26775,0.0721 -0.3782,0.0906 -0.83812,0.2502 -1.24527,0.43223 -0.49505,0.22132 -0.80739,0.41107 -1.51989,0.92329 l -0.0672,0.0483 z m 3.30943,-3.34747 c 0.12945,-0.12285 0.38672,-0.34587 0.57173,-0.4956 0.47179,-0.38182 0.75496,-0.78846 0.91044,-1.30741 l 0.0374,-0.12488 -0.0964,-0.10296 c -0.053,-0.0566 -0.18509,-0.16097 -0.29347,-0.23189 l -0.19707,-0.12895 -0.22721,-0.069 -0.22722,-0.069 -0.27175,0.0143 -0.27175,0.0143 -0.21348,0.10089 -0.21347,0.10088 -0.15636,0.13907 -0.15635,0.13907 -0.12477,0.25256 -0.12476,0.25255 v 0.34887 0.34886 l 0.12536,0.26256 0.12535,0.26255 0.26219,0.25834 c 0.31434,0.30973 0.25607,0.30597 0.54159,0.035 z m 0.10306,-0.76488 c -0.28003,-0.1286 -0.39849,-0.39693 -0.31228,-0.70737 l 0.0346,-0.12465 0.11025,-0.11025 c 0.31743,0.0406 0.37905,0.0244 0.97768,0.24049 v 0.16865 0.16864 l -0.0467,0.0893 c -0.15015,0.28741 -0.47894,0.40588 -0.76363,0.27516 z m 7.23941,0.71373 0.24859,-0.24143 0.12553,-0.26293 0.12553,-0.26293 v -0.34726 -0.34727 l -0.0904,-0.19301 c -0.12601,-0.26899 -0.27176,-0.44162 -0.49426,-0.58543 l -0.19062,-0.1232 -0.21539,-0.0583 -0.21539,-0.0583 -0.26959,0.0185 -0.26959,0.0185 -0.24284,0.12002 -0.24284,0.12001 -0.17283,0.15893 -0.17284,0.15892 0.043,0.14556 c 0.14126,0.4784 0.4291,0.90476 0.83084,1.23073 0.15436,0.12524 0.41143,0.34531 0.57125,0.48904 0.35277,0.31725 0.32658,0.31642 0.63189,0.0199 z m -1.16496,-0.72061 -0.14326,-0.0728 -0.0877,-0.13252 -0.0877,-0.13252 v -0.18529 -0.1853 c 0.6366,-0.0667 0.87011,-0.17434 0.99457,-0.19289 0.0678,-0.0101 0.15291,0.22131 0.15291,0.22131 v 0.15485 0.15486 l -0.0586,0.12347 -0.0586,0.12348 -0.12794,0.0847 -0.12793,0.0847 -0.15629,0.0135 -0.15628,0.0135 z m -8.62236,-0.66679 c 0.0338,-0.0955 0.11759,-0.29642 0.1863,-0.44649 l 0.12492,-0.27285 h -0.0488 c -0.0924,0 -0.30533,0.13102 -0.37746,0.23231 l -0.0723,0.10152 -0.0176,0.13101 -0.0176,0.13101 0.0567,0.14856 c 0.0724,0.18946 0.0909,0.18666 0.16572,-0.0251 z m 11.87199,-0.0728 0.0218,-0.11641 -0.0348,-0.12915 -0.0348,-0.12915 -0.10444,-0.10211 c -0.0994,-0.0972 -0.31075,-0.19492 -0.34579,-0.15989 -0.009,0.009 0.0341,0.11843 0.0959,0.24308 0.0618,0.12464 0.14722,0.32177 0.18982,0.43805 l 0.0775,0.21142 0.0564,-0.0697 c 0.031,-0.0384 0.0663,-0.1221 0.0783,-0.18613 z m -6.29508,3.82655 c -0.12703,-0.25011 -0.25033,-0.48076 -0.27399,-0.51254 l -0.043,-0.0578 -0.1904,-0.0493 c -0.10471,-0.0271 -0.27587,-0.0928 -0.38033,-0.14601 l -0.18995,-0.0967 -0.12205,-0.12692 c -0.28563,-0.29702 -0.26316,-0.57958 0.0699,-0.87903 l 0.16557,-0.14887 0.23068,-0.0855 c 0.12688,-0.047 0.36181,-0.11031 0.52207,-0.14063 l 0.29138,-0.0551 0.37553,0.0209 0.37553,0.0209 0.25253,0.0848 c 0.1389,0.0466 0.33838,0.13691 0.4433,0.20065 l 0.19075,0.11587 0.0888,0.11644 0.0888,0.11643 0.0115,0.18693 0.0115,0.18694 -0.0762,0.13229 -0.0762,0.13229 -0.20916,0.14049 -0.20917,0.14048 -0.23689,0.069 c -0.13029,0.0379 -0.25422,0.0742 -0.2754,0.0806 -0.0212,0.006 -0.15317,0.23585 -0.29331,0.50988 -0.30719,0.60065 -0.2607,0.59692 -0.54179,0.0435 z"
       id="path1"
       sodipodi:nodetypes="cssccscsscscccccscssssccccscsscsccccscscscsscsscccsscccsssscccccsscsscssscsscccccccssscccscccccccsccsssccsscscssccssssscsscscscsscscccccccscccsscccsscccsscccccssccsscsccsscccccsscsccssscccsscsscccccccccccccccscccsccccccccccccccsscccccccccsssccccccccscccccccccccscssccccccccccssscccccsscsccssccsccccscccccccccccsss"
       inkscape:export-filename="favicon.png"
       inkscape:export-xdpi="96"
       inkscape:export-ydpi="96" /></g></svg>
